<?xml version="1.0" encoding="UTF-8"?>
<!DOCTYPE svg PUBLIC "-//W3C//DTD SVG 1.1//EN" "http://www.w3.org/Graphics/SVG/1.1/DTD/svg11.dtd">
<!-- Creator: CorelDRAW -->
<svg xmlns="http://www.w3.org/2000/svg" xml:space="preserve" width="50mm" height="50mm" version="1.1" style="shape-rendering:geometricPrecision; text-rendering:geometricPrecision; image-rendering:optimizeQuality; fill-rule:evenodd; clip-rule:evenodd"
viewBox="0 0 1295.72 1295.72"
 xmlns:xlink="http://www.w3.org/1999/xlink"
 xmlns:xodm="http://www.corel.com/coreldraw/odm/2003">
 <defs>
  <style type="text/css">
   <![CDATA[
    .fil0 {fill:#00419D}
    .fil1 {fill:#F8D99B;fill-rule:nonzero}
   ]]>
  </style>
 </defs>
 <g id="Слой_x0020_1">
  <metadata id="CorelCorpID_0Corel-Layer"/>
  <rect class="fil0" width="1295.72" height="1295.72" rx="256.72" ry="259.14"/>
  <g id="_2135986211760">
   <g>
    <g>
     <path class="fil1" d="M1027.97 849.52c-3.46,-9.36 -13.85,-14.15 -23.21,-10.69l-187.91 69.33c-9.36,3.45 -14.15,13.84 -10.69,23.21 2.7,7.3 9.6,11.82 16.95,11.82 2.08,0 4.19,-0.36 6.25,-1.12l187.9 -69.34c9.36,-3.45 14.15,-13.84 10.7,-23.21z"/>
    </g>
   </g>
   <g>
    <g>
     <path class="fil1" d="M788.4 937.92c-3.45,-9.36 -13.84,-14.15 -23.21,-10.7l-7.96 2.94c-9.36,3.45 -14.15,13.84 -10.7,23.2 2.69,7.3 9.6,11.82 16.95,11.82 2.08,0 4.19,-0.36 6.25,-1.12l7.96 -2.94c9.36,-3.45 14.15,-13.84 10.69,-23.21z"/>
    </g>
   </g>
   <g>
    <g>
     <path class="fil1" d="M1027.97 775.9c-3.46,-9.36 -13.85,-14.15 -23.21,-10.7l-148.5 54.79c-9.36,3.46 -14.15,13.85 -10.69,23.21 2.7,7.3 9.6,11.82 16.95,11.82 2.08,0 4.19,-0.36 6.25,-1.12l148.49 -54.79c9.36,-3.45 14.15,-13.85 10.7,-23.21z"/>
    </g>
   </g>
   <g>
    <g>
     <path class="fil1" d="M1027.97 703.04c-3.46,-9.36 -13.85,-14.15 -23.21,-10.7l-148.5 54.79c-9.36,3.45 -14.15,13.84 -10.69,23.21 2.7,7.3 9.6,11.82 16.95,11.82 2.08,0 4.19,-0.36 6.25,-1.12l148.49 -54.79c9.36,-3.45 14.15,-13.84 10.7,-23.21z"/>
    </g>
   </g>
   <g>
    <g>
     <path class="fil1" d="M1089.55 372.44l-435.43 -160.67c-4.04,-1.49 -8.47,-1.49 -12.51,0l-435.43 160.67 -0.01 0.01c-1.43,0.53 -2.8,1.23 -4.07,2.11 -4.85,3.38 -7.74,8.92 -7.74,14.83l0 516.93c0,7.57 4.71,14.33 11.81,16.95l435.43 160.67c2.03,0.75 4.15,1.12 6.25,1.12 2.13,0 4.24,-0.39 6.25,-1.13l0.01 0.01 435.43 -160.67c7.1,-2.62 11.81,-9.38 11.81,-16.95l0 -516.93c0,-7.57 -4.71,-14.33 -11.81,-16.95zm-459.76 668.62l-399.3 -147.34 0 -478.41 81.3 30 0 218.92c0,7.56 4.71,14.33 11.81,16.95l195.13 72c2.03,0.75 4.15,1.11 6.25,1.11 3.65,0 7.26,-1.1 10.33,-3.24 4.85,-3.38 7.74,-8.91 7.74,-14.82l0 -205.59 86.72 32 0 478.41 0 0zm-122.86 -523.75l0 192.99 -158.99 -58.67 0 -192.99 158.99 58.67zm-124.87 -84.74l142.94 -52.74 142.94 52.74 -142.94 52.74 -142.94 -52.74zm265.8 98.22l-70.86 -26.15 149.39 -55.12c7.1,-2.62 11.81,-9.38 11.81,-16.95 0,-7.57 -4.72,-14.33 -11.81,-16.95l-195.13 -72c-4.04,-1.49 -8.47,-1.49 -12.51,0l-189.07 69.77 -65.05 -24 383.24 -141.41 383.24 141.41 -383.24 141.41zm417.37 362.93l-399.3 147.33 0 -478.41 399.3 -147.34 0 478.41z"/>
    </g>
   </g>
  </g>
 </g>
</svg>
